<?xml version="1.0" standalone="no"?>
<!DOCTYPE svg PUBLIC "-//W3C//DTD SVG 20010904//EN"
 "http://www.w3.org/TR/2001/REC-SVG-20010904/DTD/svg10.dtd">
<svg version="1.0" xmlns="http://www.w3.org/2000/svg"
 width="512.000000pt" height="512.000000pt" viewBox="0 0 512.000000 512.000000"
 preserveAspectRatio="xMidYMid meet">
<metadata>
Created by potrace 1.11, written by Peter Selinger 2001-2013
</metadata>
<g transform="translate(0.000000,512.000000) scale(0.100000,-0.100000)"
fill="#000000" stroke="none">
<path d="M2340 5109 c-338 -43 -689 -197 -951 -415 -417 -347 -660 -869 -659
-1418 1 -863 442 -1828 1245 -2726 143 -159 411 -430 493 -498 76 -63 104 -66
159 -20 435 372 937 978 1233 1488 423 730 609 1509 500 2099 -45 246 -165
530 -308 731 -209 293 -523 533 -865 661 -243 90 -592 131 -847 98z m380 -489
c576 -71 1046 -511 1154 -1080 9 -45 16 -97 16 -116 l0 -34 -264 0 c-146 0
-276 -4 -289 -9 -16 -6 -55 -60 -118 -162 l-94 -153 -5 430 c-3 236 -8 434
-12 440 -14 22 -63 35 -90 25 -19 -7 -82 -93 -219 -295 l-193 -286 -113 0
c-94 0 -116 -3 -131 -18 -9 -9 -55 -79 -102 -154 l-85 -137 -5 424 c-5 408 -6
425 -25 444 -31 31 -67 35 -95 13 -14 -11 -108 -144 -210 -296 l-185 -275
-212 -1 -213 0 0 39 c0 115 63 330 142 483 138 269 341 464 623 599 222 106
481 149 725 119z m-697 -1871 c8 -17 49 -39 71 -39 31 0 69 51 211 279 l150
241 107 0 c58 0 114 3 123 6 9 4 76 95 148 203 l132 196 5 -444 5 -444 27 -20
c22 -17 33 -18 60 -11 29 9 50 37 188 259 l156 250 246 3 247 2 -5 -52 c-61
-601 -483 -1075 -1067 -1199 -123 -27 -368 -32 -487 -10 -101 18 -290 80 -375
124 -422 214 -691 609 -739 1085 l-5 52 253 0 254 0 28 33 c16 18 79 108 139
199 l110 166 5 -431 c3 -238 9 -439 13 -448z"/>
</g>
</svg>
